<svg xmlns="http://www.w3.org/2000/svg" viewBox="0 0 180 180" role="img" aria-label="Bebidas San Martin">
  <defs>
    <linearGradient id="bg" x1="20" y1="18" x2="160" y2="162" gradientUnits="userSpaceOnUse">
      <stop offset="0" stop-color="#1463d8"/>
      <stop offset="1" stop-color="#16834d"/>
    </linearGradient>
    <linearGradient id="glass" x1="71" y1="28" x2="111" y2="145" gradientUnits="userSpaceOnUse">
      <stop offset="0" stop-color="#ffffff"/>
      <stop offset="1" stop-color="#dbeafe"/>
    </linearGradient>
  </defs>
  <rect x="10" y="10" width="160" height="160" rx="34" fill="url(#bg)"/>
  <circle cx="135" cy="44" r="16" fill="#facc15"/>
  <path d="M43 52c9-14 24-24 42-24 21 0 38 13 46 31" fill="none" stroke="#e0f2fe" stroke-width="10" stroke-linecap="round" opacity=".9"/>
  <path d="M66 43h47l-8 93c-1 10-9 18-20 18h-1c-10 0-19-8-20-18L56 43h10z" fill="url(#glass)" stroke="#ffffff" stroke-width="6" stroke-linejoin="round"/>
  <path d="M62 82h47l-5 54c-1 8-8 14-16 14h-6c-8 0-15-6-16-14l-4-54z" fill="#f59e0b" opacity=".95"/>
  <path d="M65 69c9 6 17 6 25 0 8-6 16-6 24 0" fill="none" stroke="#ffffff" stroke-width="6" stroke-linecap="round"/>
  <path d="M116 75h13c9 0 16 7 16 16s-7 16-16 16h-17" fill="none" stroke="#ffffff" stroke-width="9" stroke-linecap="round"/>
  <path d="M53 123c-10 4-18 11-22 21 16 5 35 8 56 8s40-3 56-8c-5-11-14-18-26-22" fill="none" stroke="#e0f2fe" stroke-width="8" stroke-linecap="round" opacity=".9"/>
</svg>
